<svg xmlns="http://www.w3.org/2000/svg" viewBox="0 0 572 212"><defs><style>.a{fill:#ffc400;}.b{fill:#fff;}</style></defs><title>zanmi</title><rect class="a" width="572" height="212"/><path class="b" d="M116.451,141.111l-.266,8.777-.266,1.6-1.2.533-1.064.133H111.8l-5.054-.4h-2l-7.713.4-9.842-.666H85.064l-7.714.4-2.128.134-7.714.133-2.128-.133-7.714-.4-2.128-.134H47.826l-2.261.134-3.325.266-2.261.134h-2l-1.2-.533-.266-1.6-.266-5.319v-1.33l.532-1.2,4.256-5.985,1.2-1.862,3.99-6.25,1.064-1.862,4.256-5.985,1.064-1.862,3.857-6.384,1.064-1.862,4.123-6.25,1.064-1.862,5.32-7.713,4.521-6.118L78.016,80.2V78.736l-1.6-.532-7.448-.532H66.844l-7.448.133H57.268l-7.448.4H44.9l-4.389-.266-1.463-.532-.532-1.6V74.747l-.133-2.261-.133-4.521V65.836l-.266-8.113.665-1.33,1.729-.133L57,55.728H59.13l7.314.133h2.128l7.182-.133h2.128l7.314.4L94.64,55.6h2.128l9.442.532,7.182-.133,1.729.266.665,1.463v.931l.133,2.261-.133,1.2-.133,1.463-.8,1.2-4.123,6.118-5.32,7.714-1.064,1.862-4.256,5.985-1.064,1.862L95.438,94.7l-1.2,1.729-4.256,5.985-1.2,1.729-4.921,7.979-3.99,6.251L78.813,120.1l-4.123,6.118-.532,1.33.4.931,1.463.4,2.261.133h2.261l13.565-.931h2.128l8.113.266h2.128l5.187-.4h1.995l1.064.133,1.33.532.4,1.6Z"/><path class="b" d="M235.352,147.895l.4,1.861-.931,1.463-1.463.665-1.729.267h-1.862l-3.059-.267-2-.133h-5.985l-8.245.532-1.729-.665-.8-.931-.665-1.463-4.123-11.172-.931-1.33-1.2-.266-1.6-.133-7.979-.532h-2.128l-9.975-.266-7.98-.133h-1.995l-2,.133h-6.118l-1.729.266-1.064.665-.8,1.6-3.059,9.043-.8,2.129-1.463,1.729-2,.665h-2.128l-7.714-.4H138.4l-8.246.532-1.729.133-1.6-.8-1.064-1.463.133-1.729.266-1.064.8-2.128,1.862-4.123.8-1.995,3.325-7.448.8-1.862,3.458-7.448.8-2,3.059-7.182.8-2,3.591-7.448.8-1.862,4.788-10.906,3.724-7.979.931-2.128,2.926-5.985.931-2.128,2.527-6.118.8-1.995,2.394-5.453.665-1.463,1.33-.8,1.995-.4,6.118-.266h10.374l6.118.133,2.261.4,1.463,1.064.665,1.729,1.862,5.187.8,2,3.325,6.25.8,1.862,2.926,6.517.8,1.862,2.394,6.783.8,1.862,2.926,6.384.8,1.862,2.926,6.517.8,1.862,2.659,6.649.8,1.862,4.123,8.246L228.17,131l.931,1.862,3.591,8.378Zm-44.421-37.505-.532-1.729-2.926-9.043-.665-2-2.66-7.847-.665-1.729-1.33-.931-1.729-.4-1.463.4-1.33,1.33-3.591,9.043-.8,2-3.458,8.911-.4,1.995.4,1.6,1.463.665,1.862.266h8.379l6.251.4,1.729-.532,1.064-1.064Z"/><path class="b" d="M340.155,76.608l-.133,2.128V98.42l.4,7.713v2.128l.267,17.556v2.261l-.133,1.064-.134,2.261-.4,6.384.133,7.713-.133,1.862-.532,1.6-1.063,1.463-1.33.931-1.2.4-1.862.133-6.782.267-2.128.133-3.325.133h-2.128l-1.729-.4-1.6-.666-1.6-1.2-1.2-1.729-2-3.856-1.2-1.729-5.187-6.517-1.33-1.6-5.187-6.384-1.2-1.729-4.655-6.916-1.2-1.6-5.187-6.384-1.33-1.6-4.921-6.517-1.2-1.064-.932.4-.4,1.6-.267,6.65v2.128l.134,6.649v2.128l.133,7.448v2.128l-.4,7.448.133,2.128.8,5.32.133,2.127-.4,1.729-.931.931-.931.267-1.6.266-1.063.134-2.261.133-6.118-.133h-2.128l-5.453.266H255.3l-1.994-.133-1.464-.267-1.063-.665-.532-.931-.266-1.33-.133-.931v-2l.266-4.389.133-2.128-.4-7.049v-2.128l.266-16.226.133-2.128.4-7.049.133-2.128V93.632l-.532-7.049V84.455l.532-7.049-.133-2.128-.532-7.182-.133-2.128V62.91l.133-2,.266-2,.267-1.463.4-.931.8-.4,1.464-.266L257.3,55.6l3.99.266h9.975l1.6.133.665.532.8,1.2,5.586,5.985,1.33,1.6,4.921,6.384,1.33,1.6L292.41,79.8l1.33,1.6,4.787,6.649,1.2,1.6,5.054,6.384,1.33,1.6,4.788,6.65,1.063.931,1.064.133.931-.665v-1.463l-.931-5.586-.133-2.128.4-5.719V87.647l-.532-8.113V77.406l.532-8.112-.133-2.128-.4-4.921V58.92l.4-1.729.532-1.064.931-.532,1.6-.266h1.2l2.261-.133,5.985.4h2.128l4.521-.266,2,.133,3.059.133,1.463.266.931.4.8.931.266,1.862.133,1.2.133,2.261-.266,4.123-.266,2.128Z"/><path class="b" d="M465.973,139.648l.134,2.128.531,4.123.134,2-.134,1.063-.133,1.463-.665,1.063-.8.666-1.463.266-2,.133h-2.128l-5.319-.4-2.261-.133h-3.325l-2.395-.134-4.92-.665-.932-.266-.531-.665-.134-1.33-.133-1.862-.133-1.994.266-4.522v-12.5l-.4-8.378v-2.128l.532-8.246V98.952l-.267-1.6-.8-.532h-.8l-.931,1.2-1.33,1.862-5.586,6.384-8.113,9.708-5.319,6.65-1.2,1.064-.931.4h-1.064l-1.463-.266-1.6-.4-1.463-1.064-6.649-7.979-4.921-6.517-1.33-1.6L389.1,98.553l-1.729-1.729-.8.266-.266,1.463-.4,8.379v2.128l.531,8.378v2.128l.267,8.379v2.128l-.134,8.246v2l.134,3.989-.134,2.129-.133,2.26-.266,1.729-.532.8-.931.266-3.458.4-2.128.134-5.187-.4-2.128.133-6.384.532h-3.06l-1.6-.266-.8-.8-.266-.931-.267-1.33V145.9l.267-4.123V121.295l-.267-7.049v-2.128l.133-7.049-.133-2.128-.4-7.182V93.632l.4-7.049.133-2.128-.531-7.049.133-2.128.532-7.049V66.1l-.532-4.92V59.053l.266-1.729.532-.931.8-.665,1.064-.266,1.729-.133,2.261.266,2.926.665h2.128l4.123-.4,2.261-.266,2-.133,5.054.133h1.729l1.463.665,1.33,1.463,4.654,5.187,1.33,1.729,3.857,5.453,1.329,1.729,4.39,5.187,1.33,1.862,4.122,5.187,1.33,1.463,1.2.665h1.33l1.2-.665,1.2-1.33,3.99-5.32,1.33-1.862,4.256-5.187,1.33-1.729L431.66,64.9l1.33-1.729,3.458-4.256,1.063-1.463,1.064-1.064,1.33-.665,1.729.133,7.049.4,6.251.133h2.128l3.99-.266,2.261.133,1.6.266.931.266.8.665.267,1.064-.133,1.6-.532,5.984-.133,2.128.266,7.049v2.128l-.133,7.049v2.128l.133,7.049V95.76l.532,7.182v2.128l-.532,7.049v2.128l.4,7.049v2.128l-.532,7.049V132.6Z"/><path class="b" d="M513.058,130.871V133l-.532,7.182v2.128l-.133,7.314v1.463l-.4.8-1.063.267-1.862.133-6.782-.133h-8.246l-6.65-.532-.8-.267-.4-.4v-1.33l-.267-3.324V144.17l-.133-1.994v-2l-.4-7.182.133-2.128.4-7.182.134-2.128-.4-7.315v-2.128l-.133-7.182V93.5l-.133-7.315V84.056l.133-7.182V65.437l-.266-7.315.4-1.463.8-.532,1.33-.133h1.064l1.994-.133,3.192.133h2.128l6.118-.266h8.245l1.463.266.267.8.133,1.463.266,3.458.133,2.128V76.875l.133,7.182v2.128l-.133,7.315v2.128l.133,7.182v2.128l-.266,7.182v11.571Z"/></svg>