<svg xmlns="http://www.w3.org/2000/svg" viewBox="0 0 572 212"><defs><style>.a{fill:#ffc400;}.b{fill:#fff;}.c{opacity:0.05;}</style></defs><title>zanmi</title><rect class="a" width="572" height="212"/><path class="b" d="M116.451,141.111l-.266,8.777-.266,1.6-1.2.533-1.064.133H111.8l-5.054-.4h-2l-7.713.4-9.842-.666H85.064l-7.714.4-2.128.134-7.714.133-2.128-.133-7.714-.4-2.128-.134H47.826l-2.261.134-3.325.266-2.261.134h-2l-1.2-.533-.266-1.6-.266-5.319v-1.33l.532-1.2,4.256-5.985,1.2-1.862,3.99-6.25,1.064-1.862,4.256-5.985,1.064-1.862,3.857-6.384,1.064-1.862,4.123-6.25,1.064-1.862,5.32-7.713,4.521-6.118L78.016,80.2V78.736l-1.6-.532-7.448-.532H66.844l-7.448.133H57.268l-7.448.4H44.9l-4.389-.266-1.463-.532-.532-1.6V74.747l-.133-2.261-.133-4.521V65.836l-.266-8.113.665-1.33,1.729-.133L57,55.728H59.13l7.314.133h2.128l7.182-.133h2.128l7.314.4L94.64,55.6h2.128l9.442.532,7.182-.133,1.729.266.665,1.463v.931l.133,2.261-.133,1.2-.133,1.463-.8,1.2-4.123,6.118-5.32,7.714-1.064,1.862-4.256,5.985-1.064,1.862L95.438,94.7l-1.2,1.729-4.256,5.985-1.2,1.729-4.921,7.979-3.99,6.251L78.813,120.1l-4.123,6.118-.532,1.33.4.931,1.463.4,2.261.133h2.261l13.565-.931h2.128l8.113.266h2.128l5.187-.4h1.995l1.064.133,1.33.532.4,1.6Z"/><path class="b" d="M235.352,147.895l.4,1.861-.931,1.463-1.463.665-1.729.267h-1.862l-3.059-.267-2-.133h-5.985l-8.245.532-1.729-.665-.8-.931-.665-1.463-4.123-11.172-.931-1.33-1.2-.266-1.6-.133-7.979-.532h-2.128l-9.975-.266-7.98-.133h-1.995l-2,.133h-6.118l-1.729.266-1.064.665-.8,1.6-3.059,9.043-.8,2.129-1.463,1.729-2,.665h-2.128l-7.714-.4H138.4l-8.246.532-1.729.133-1.6-.8-1.064-1.463.133-1.729.266-1.064.8-2.128,1.862-4.123.8-1.995,3.325-7.448.8-1.862,3.458-7.448.8-2,3.059-7.182.8-2,3.591-7.448.8-1.862,4.788-10.906,3.724-7.979.931-2.128,2.926-5.985.931-2.128,2.527-6.118.8-1.995,2.394-5.453.665-1.463,1.33-.8,1.995-.4,6.118-.266h10.374l6.118.133,2.261.4,1.463,1.064.665,1.729,1.862,5.187.8,2,3.325,6.25.8,1.862,2.926,6.517.8,1.862,2.394,6.783.8,1.862,2.926,6.384.8,1.862,2.926,6.517.8,1.862,2.659,6.649.8,1.862,4.123,8.246L228.17,131l.931,1.862,3.591,8.378Zm-44.421-37.505-.532-1.729-2.926-9.043-.665-2-2.66-7.847-.665-1.729-1.33-.931-1.729-.4-1.463.4-1.33,1.33-3.591,9.043-.8,2-3.458,8.911-.4,1.995.4,1.6,1.463.665,1.862.266h8.379l6.251.4,1.729-.532,1.064-1.064Z"/><path class="b" d="M340.155,76.608l-.133,2.128V98.42l.4,7.713v2.128l.267,17.556v2.261l-.133,1.064-.134,2.261-.4,6.384.133,7.713-.133,1.862-.532,1.6-1.063,1.463-1.33.931-1.2.4-1.862.133-6.782.267-2.128.133-3.325.133h-2.128l-1.729-.4-1.6-.666-1.6-1.2-1.2-1.729-2-3.856-1.2-1.729-5.187-6.517-1.33-1.6-5.187-6.384-1.2-1.729-4.655-6.916-1.2-1.6-5.187-6.384-1.33-1.6-4.921-6.517-1.2-1.064-.932.4-.4,1.6-.267,6.65v2.128l.134,6.649v2.128l.133,7.448v2.128l-.4,7.448.133,2.128.8,5.32.133,2.127-.4,1.729-.931.931-.931.267-1.6.266-1.063.134-2.261.133-6.118-.133h-2.128l-5.453.266H255.3l-1.994-.133-1.464-.267-1.063-.665-.532-.931-.266-1.33-.133-.931v-2l.266-4.389.133-2.128-.4-7.049v-2.128l.266-16.226.133-2.128.4-7.049.133-2.128V93.632l-.532-7.049V84.455l.532-7.049-.133-2.128-.532-7.182-.133-2.128V62.91l.133-2,.266-2,.267-1.463.4-.931.8-.4,1.464-.266L257.3,55.6l3.99.266h9.975l1.6.133.665.532.8,1.2,5.586,5.985,1.33,1.6,4.921,6.384,1.33,1.6L292.41,79.8l1.33,1.6,4.787,6.649,1.2,1.6,5.054,6.384,1.33,1.6,4.788,6.65,1.063.931,1.064.133.931-.665v-1.463l-.931-5.586-.133-2.128.4-5.719V87.647l-.532-8.113V77.406l.532-8.112-.133-2.128-.4-4.921V58.92l.4-1.729.532-1.064.931-.532,1.6-.266h1.2l2.261-.133,5.985.4h2.128l4.521-.266,2,.133,3.059.133,1.463.266.931.4.8.931.266,1.862.133,1.2.133,2.261-.266,4.123-.266,2.128Z"/><path class="b" d="M465.973,139.648l.134,2.128.531,4.123.134,2-.134,1.063-.133,1.463-.665,1.063-.8.666-1.463.266-2,.133h-2.128l-5.319-.4-2.261-.133h-3.325l-2.395-.134-4.92-.665-.932-.266-.531-.665-.134-1.33-.133-1.862-.133-1.994.266-4.522v-12.5l-.4-8.378v-2.128l.532-8.246V98.952l-.267-1.6-.8-.532h-.8l-.931,1.2-1.33,1.862-5.586,6.384-8.113,9.708-5.319,6.65-1.2,1.064-.931.4h-1.064l-1.463-.266-1.6-.4-1.463-1.064-6.649-7.979-4.921-6.517-1.33-1.6L389.1,98.553l-1.729-1.729-.8.266-.266,1.463-.4,8.379v2.128l.531,8.378v2.128l.267,8.379v2.128l-.134,8.246v2l.134,3.989-.134,2.129-.133,2.26-.266,1.729-.532.8-.931.266-3.458.4-2.128.134-5.187-.4-2.128.133-6.384.532h-3.06l-1.6-.266-.8-.8-.266-.931-.267-1.33V145.9l.267-4.123V121.295l-.267-7.049v-2.128l.133-7.049-.133-2.128-.4-7.182V93.632l.4-7.049.133-2.128-.531-7.049.133-2.128.532-7.049V66.1l-.532-4.92V59.053l.266-1.729.532-.931.8-.665,1.064-.266,1.729-.133,2.261.266,2.926.665h2.128l4.123-.4,2.261-.266,2-.133,5.054.133h1.729l1.463.665,1.33,1.463,4.654,5.187,1.33,1.729,3.857,5.453,1.329,1.729,4.39,5.187,1.33,1.862,4.122,5.187,1.33,1.463,1.2.665h1.33l1.2-.665,1.2-1.33,3.99-5.32,1.33-1.862,4.256-5.187,1.33-1.729L431.66,64.9l1.33-1.729,3.458-4.256,1.063-1.463,1.064-1.064,1.33-.665,1.729.133,7.049.4,6.251.133h2.128l3.99-.266,2.261.133,1.6.266.931.266.8.665.267,1.064-.133,1.6-.532,5.984-.133,2.128.266,7.049v2.128l-.133,7.049v2.128l.133,7.049V95.76l.532,7.182v2.128l-.532,7.049v2.128l.4,7.049v2.128l-.532,7.049V132.6Z"/><path class="b" d="M513.058,130.871V133l-.532,7.182v2.128l-.133,7.314v1.463l-.4.8-1.063.267-1.862.133-6.782-.133h-8.246l-6.65-.532-.8-.267-.4-.4v-1.33l-.267-3.324V144.17l-.133-1.994v-2l-.4-7.182.133-2.128.4-7.182.134-2.128-.4-7.315v-2.128l-.133-7.182V93.5l-.133-7.315V84.056l.133-7.182V65.437l-.266-7.315.4-1.463.8-.532,1.33-.133h1.064l1.994-.133,3.192.133h2.128l6.118-.266h8.245l1.463.266.267.8.133,1.463.266,3.458.133,2.128V76.875l.133,7.182v2.128l-.133,7.315v2.128l.133,7.182v2.128l-.266,7.182v11.571Z"/><path class="c" d="M150.013,142.706l.356,1.665-.832,1.308-1.308.595-1.546.237h-1.665l-2.735-.237-1.784-.119h-5.351l-7.373.476-1.545-.595-.714-.832-.594-1.309-3.687-9.988-.832-1.189-1.07-.238-1.427-.119-7.135-.476h-1.9l-8.918-.238-7.135-.119H91.032l-1.784.119h-5.47l-1.546.238-.951.595-.713,1.427-2.735,8.086-.713,1.9-1.308,1.546-1.784.595h-1.9l-6.9-.356h-1.9l-7.373.476-1.546.119-1.427-.714-.951-1.308.119-1.546.238-.952.713-1.9,1.665-3.687.713-1.784,2.973-6.659.713-1.665,3.092-6.659.713-1.784,2.735-6.421.713-1.784,3.211-6.659.713-1.665,4.281-9.751,3.33-7.135.833-1.9L81.4,76.948l.833-1.9,2.259-5.47.713-1.784,2.141-4.875.594-1.308,1.189-.713,1.784-.356,5.47-.238h9.275l5.47.119,2.021.357,1.308.951.595,1.546,1.665,4.637.713,1.784,2.973,5.589.713,1.665,2.616,5.827.714,1.665,2.14,6.064.713,1.665,2.616,5.708.713,1.665,2.616,5.827.713,1.665,2.378,5.946.713,1.665,3.686,7.373,2.854,5.589.833,1.665,3.21,7.491ZM110.3,109.173l-.476-1.546L107.2,99.541l-.595-1.784-2.378-7.016-.594-1.545-1.189-.833-1.546-.357-1.308.357L98.4,89.552l-3.21,8.086-.713,1.784-3.092,7.967-.357,1.784.357,1.427,1.308.595,1.665.238h7.492l5.589.356,1.546-.476.951-.951Z"/><path class="c" d="M258.573,135.333l.119,1.9.476,3.687.119,1.784-.119.951-.119,1.308-.595.951-.713.595-1.308.238-1.784.119h-1.9l-4.756-.357-2.021-.118H243l-2.14-.119-4.4-.595-.833-.238-.476-.594-.119-1.189-.119-1.665-.119-1.784.238-4.043V124.988l-.357-7.491v-1.9l.476-7.372V98.946l-.238-1.427-.713-.476h-.713l-.833,1.07-1.189,1.665-4.995,5.708-7.253,8.681-4.756,5.946-1.07.951-.833.357H211.6l-1.308-.238-1.427-.356-1.308-.951-5.946-7.135-4.4-5.827-1.189-1.427-6.183-6.9L188.3,97.044l-.713.238-.238,1.308-.357,7.491v1.9l.476,7.492v1.9l.238,7.492v1.9l-.119,7.373v1.784l.119,3.567-.119,1.9-.119,2.021-.238,1.546-.476.714-.833.237-3.092.357-1.9.119-4.638-.357-1.9.119-5.708.476h-2.735l-1.427-.237-.713-.714-.238-.832-.238-1.189v-2.735l.238-3.687V118.923l-.238-6.3v-1.9l.119-6.3-.119-1.9-.356-6.421v-1.9l.356-6.3.119-1.9-.476-6.3.119-1.9.476-6.3v-1.9l-.476-4.4v-1.9l.238-1.546.476-.833.713-.595.951-.238,1.546-.119,2.021.238,2.616.595h1.9l3.687-.357,2.021-.238,1.784-.119,4.519.119h1.546l1.308.595,1.189,1.308,4.162,4.638,1.189,1.546,3.448,4.875,1.189,1.546,3.924,4.637,1.189,1.665,3.687,4.638,1.189,1.308,1.07.595h1.189l1.07-.595,1.07-1.189,3.567-4.756,1.189-1.665,3.805-4.637,1.189-1.546,4.162-4.638,1.189-1.546,3.092-3.805.951-1.308.951-.951,1.189-.595,1.546.119,6.3.357,5.589.119h1.9l3.567-.238,2.021.119,1.427.238.832.238.714.594.238.952-.119,1.427-.476,5.351-.119,1.9.238,6.3v1.9l-.119,6.3v1.9l.119,6.3v1.9l.476,6.421v1.9l-.476,6.3v1.9l.357,6.3v1.9l-.476,6.3v1.9Z"/><path class="c" d="M300.662,127.485v1.9l-.476,6.421v1.9l-.119,6.541v1.308l-.356.714-.952.237-1.664.119-6.064-.119h-7.373l-5.945-.476L277,145.8l-.357-.357v-1.188l-.238-2.973v-1.9l-.119-1.784v-1.784l-.356-6.421.119-1.9.357-6.421.119-1.9-.356-6.54v-1.9l-.119-6.421V94.071l-.119-6.54v-1.9l.119-6.421V68.98l-.238-6.54.357-1.308.713-.476,1.189-.119h.952l1.784-.119,2.854.119h1.9l5.471-.238H298.4l1.309.238.237.713.119,1.308.237,3.091.119,1.9V79.207l.119,6.421v1.9l-.119,6.54v1.9l.119,6.421v1.9l-.238,6.421v10.345Z"/><path class="c" d="M397.929,97.4l.119,2.021-.477,7.729v11.178l-.237,4.994v7.016l-.119,1.308-.713,1.189-.952,1.546-1.069,1.546-2.021,2.021-1.428,1.308-.713.713-1.546,1.07-.833.476-1.545.951-2.379,1.189-1.783.714-1.665.594-2.735.833-1.783.476-1.9.356-1.784.356-2.734.357-1.665.237-1.784.356-4.756.595-1.784.119-3.686-.237-2.735-.238-1.9-.238-1.9-.356-1.783-.476-4.162-1.189-1.783-.476-1.784-.594-2.378-.833-1.546-.832-2.378-1.308-1.428-1.07-1.546-1.07-1.427-1.189-1.427-1.07-1.308-1.189-1.9-1.9-1.188-1.427-1.309-1.784-1.07-1.665-2.973-5.351-.832-1.9-.832-1.784-.595-1.9-.595-2.021-.356-1.9-.357-2.021-.237-1.9-.476-2.616-.238-1.9-.119-1.784v-1.784l.357-5.351.237-.952.357-2.021.476-2.021.594-1.9L316,88.363l.595-1.9.595-1.784.832-1.9.833-2.021.832-1.665,1.546-2.14,1.07-1.427,1.308-1.545,1.309-1.427,1.427-1.308,3.092-2.616,1.546-1.189,1.427-1.07,1.427-.952,3.924-2.259,1.784-1.07,2.021-.832,2.021-.595,1.9-.476,4.4-.713,3.449-.476,1.783-.357L356.9,58.4l2.734-.238,1.9-.119,2.616.238,1.784.119,2.734.357,1.665.356,2.616.476,1.783.476,2.616.833,1.784.595,4.28,2.14,1.784,1.07,1.546,1.07.595.356,1.308.833,1.308.951.595.595,1.309.951.713.595.714.833v.832l-.356.833-.714,1.07-1.07,1.546-1.189,1.308-3.329,3.33-2.141,1.9-1.427,1.189-1.308.952-.951.713-.714.476-.951.119-1.309-.832-1.546-1.07L374.74,82.3l-1.664-.952-1.9-.832-1.9-.713-2.021-.476-2.021-.356-5.589-.357h-.832l-1.9.119-3.092.238-1.9.476-3.566,1.665L346.8,82.18l-1.546,1.189-1.309,1.308-1.188,1.546-1.07,1.546-.951,1.665-.714,1.784-.595,1.9-.476,1.784-.714,3.567-.356,1.9-.119,2.021v2.022L338,107.27l.356,1.9.595,2.735.595,1.9,1.189,2.854.832,1.665,1.427,2.14,1.189,1.427,2.14,2.021,1.546,1.189,2.379,1.308,1.783.713,3.567.833,2.021.238,2.021.119h1.9l1.9-.238,1.783-.356,6.422-1.546,1.9-.713,1.783-.833,1.189-.833.356-.713v-1.308l.119-1.07v-1.784l-.238-3.567v-2.021l-.476-.713-1.308-.238h-2.854l-1.9.119-2.734.356-1.9.119H362.85l-1.9-.119-4.043-.713-.714-.238-.476-.595-.238-1.427-.118-.951-.119-1.9.119-2.973-.238-3.567-.237-1.784v-2.5l.356-1.308.595-.595,1.427-.238,2.973-.356,2.021-.119h5.47l7.729-.356,9.513.594h1.9l4.875-.594,1.9-.119.951.119,1.784.356.832.476.238.713.356,1.665Z"/><path class="c" d="M503.991,102.276l-.119,1.9-.237,2.735L503.4,108.7l-.713,3.567L502.445,115l-.237,1.784-.357,1.9-.476,1.784-1.188,2.5-.833,1.665-3.21,5.351-1.07,1.546-1.189,1.546-1.189,1.308-1.9,2.021-1.308,1.189-1.546,1.189-1.427,1.07-2.141,1.427-1.546.952-1.784.951-1.664.713-2.379.952-1.783.476-3.806,1.188-2.021.595-1.9.476-2.021.476-2.021.357-2.021.118H455l-4.043-.237-3.925-.476-1.664-.357-1.784-.476-6.421-2.14-1.9-.595-2.021-.833-3.806-1.665-1.783-.951-1.784-1.07-1.546-1.189-1.546-1.308-1.427-1.546-1.308-1.546-3.211-3.21-1.189-1.427-1.188-1.546-.951-1.546-.952-2.378-1.783-5.351-.714-2.5-.356-1.784-.356-1.9-.357-1.784-.356-2.616-.119-1.784-.118-2.021v-2.021l.118-2.021.119-2.141.238-2.021.356-2.021.476-2.021.595-2.021.595-1.784.713-1.9.833-2.735.832-1.9.476-1.07.951-1.784,1.665-2.616,1.189-1.665.594-.951,1.428-1.427,2.021-1.665,1.546-1.189,1.546-1.07,3.567-2.378,1.545-.951,1.665-.951,1.665-.833,2.5-1.07,1.665-.594,1.783-.595,1.784-.476,4.519-.833,1.783-.356,5.946-.714,3.8-.238,3.567.238,2.854.119,2.021.238,2.021.357,2.021.476,2.021.356,1.9.476,1.783.476,1.784.594,2.5.952,1.664.713,3.925,2.259,1.546,1.07,1.546,1.189,2.021,1.9,1.308,1.189,1.308,1.308,1.07,1.427,1.665,2.259.951,1.546.833,1.546.951,1.546,1.308,2.378.951,1.546.833,1.784.594,1.665.595,2.735.714,3.567.237,2.021.357,2.021ZM479.02,104.3v-2.021l-.118-2.021-.119-1.9-.714-3.567-.476-1.665L476.285,90.5l-.951-1.546-1.665-2.14-1.189-1.308-1.783-1.9-1.309-1.07L466.3,80.753l-1.665-.713-1.9-.595-1.9-.357-3.8-.238-1.784.119-2.616.119-1.783.357-3.092.833-1.9.713-2.735,1.427-1.665,1.07-1.9,1.665-1.308,1.427-1.309,1.784-.951,1.546-.356.713-1.07,2.5-.595,1.784-.356.833-.356,1.665L433,99.065l-.119,1.665-.118,1.784V104.3l.118,1.9.357,1.9.118,1.07.477,1.784.237.832.595,1.665.476.951.951,1.665.595.951L438,118.686l.714.833,1.427,1.427,2.378,2.021,1.665,1.07,1.9.951,1.784.714,2.5.832,1.783.357,2.974.357,2.021.119,2.973-.238,1.9-.238,2.616-.595,1.665-.713,2.615-1.665,1.428-1.07,1.9-1.9,1.188-1.308,1.546-1.9,1.07-1.665,1.189-2.616.714-1.784.594-2.735.238-1.784Z"/></svg>